<svg xmlns="http://www.w3.org/2000/svg" enable-background="new 0 0 2500 2500" viewBox="0 0 2500 2500"><path fill="#605efd" d="M605.73,1095.8l20.21-61.54l-32.07-10.53c2.16-19.56,0.52-38.99-4.37-57.4l30.15-15.27l-29.23-57.81        l-30.15,15.27c-11.92-14.89-26.61-27.7-43.64-37.55l10.53-32.07l-61.57-20.22l-10.53,32.07c-19.56-2.16-38.98-0.55-57.4,4.37        l-15.23-30.17l-57.82,29.23l15.23,30.17c-14.86,11.93-27.7,26.61-37.55,43.64l-32.07-10.53L250,978.98l32.07,10.53        c-2.17,19.59-0.53,39.02,4.37,57.4l-30.15,15.27l29.23,57.82l30.15-15.27c11.92,14.89,26.61,27.7,43.64,37.55l-10.54,32.1        l61.57,20.22l10.54-32.1c19.56,2.16,38.98,0.55,57.4-4.37l15.23,30.17l57.82-29.23l-15.23-30.17        c14.85-11.9,27.69-26.58,37.55-43.64L605.73,1095.8z M419.63,1082.87c-47.08-11.44-72.62-61.92-53.94-106.66        c14.7-35.19,53.57-54.84,90.62-45.81c47.1,11.48,72.61,61.98,53.91,106.67C495.52,1072.22,456.67,1091.87,419.63,1082.87z" class="color605efd svgShape"/><path fill="#ffffff" d="M1261.82,531.82H624.52c-83.25,0-150.74,67.49-150.74,150.74v1334.38h938.78V682.56         C1412.56,599.31,1345.07,531.82,1261.82,531.82z" class="colorfff svgShape"/><path fill="#030047" d="M1412.56,2020.67H473.78c-2.06,0-3.73-1.67-3.73-3.73V682.56c0-85.18,69.3-154.47,154.47-154.47h637.31         c85.18,0,154.47,69.3,154.47,154.47v1334.38C1416.29,2019,1414.62,2020.67,1412.56,2020.67z M477.51,2013.2h931.31V682.56         c0-81.06-65.95-147-147-147H624.51c-81.06,0-147,65.95-147,147V2013.2z" class="color030047 svgShape"/><path fill="#e6f3fc" d="M1266.24,1440.32H648.15c-5.02,0-9.09-4.07-9.09-9.09V1287.4c0-5.02,4.07-9.09,9.09-9.09h618.09        c5.02,0,9.09,4.07,9.09,9.09v143.83C1275.33,1436.25,1271.26,1440.32,1266.24,1440.32z" class="colore6f3fc svgShape"/><circle cx="774.25" cy="1363.73" r="17.94" fill="#030047" class="color030047 svgShape"/><circle cx="856.92" cy="1363.73" r="17.94" fill="#030047" class="color030047 svgShape"/><circle cx="939.6" cy="1363.73" r="17.94" fill="#030047" class="color030047 svgShape"/><circle cx="1022.28" cy="1363.73" r="17.94" fill="#030047" class="color030047 svgShape"/><circle cx="1104.95" cy="1363.73" r="17.94" fill="#030047" class="color030047 svgShape"/><path fill="#e6f3fc" d="M1266.24,1692.22H648.15c-5.02,0-9.09-4.07-9.09-9.09V1539.3c0-5.02,4.07-9.09,9.09-9.09h618.09        c5.02,0,9.09,4.07,9.09,9.09v143.83C1275.33,1688.15,1271.26,1692.22,1266.24,1692.22z" class="colore6f3fc svgShape"/><path fill="#030047" d="M747.4 1606.73c0-1.21.43-2.3 1.28-3.25.86-.95 1.87-1.43 3.05-1.43.79 0 5.24 1.59 13.36 4.78-.26-4.57-.39-7.72-.39-9.46 0-1.28.42-2.33 1.26-3.15.84-.82 1.88-1.23 3.13-1.23 1.28 0 2.34.41 3.18 1.23.84.82 1.25 1.87 1.25 3.15 0 1.81.1 4.58.3 8.33 7.89-1.18 12.71-1.77 14.49-1.77 1.22 0 2.23.44 3.03 1.31.8.87 1.21 1.93 1.21 3.18 0 2.3-1.23 3.71-3.7 4.24-2.3.49-6.36 1.08-12.17 1.77 1.91 1.74 3.98 3.98 6.21 6.7 2.93 3.61 4.39 6.13 4.39 7.54 0 1.18-.46 2.21-1.38 3.08-.92.87-1.97 1.31-3.16 1.31-1.25 0-2.38-.59-3.4-1.77-2.01-2.69-5.28-6.55-9.81-11.58-6.77 7.66-11.35 11.48-13.75 11.48-1.19 0-2.23-.46-3.13-1.38-.9-.92-1.36-1.97-1.36-3.15 0-1.12.53-2.2 1.58-3.25 2.11-1.77 5.16-4.62 9.17-8.53-2.69-.85-6.64-2.28-11.83-4.29C748.34 1609.75 747.4 1608.47 747.4 1606.73zM832.88 1606.73c0-1.21.43-2.3 1.28-3.25s1.87-1.43 3.05-1.43c.79 0 5.24 1.59 13.36 4.78-.26-4.57-.39-7.72-.39-9.46 0-1.28.42-2.33 1.26-3.15.84-.82 1.88-1.23 3.13-1.23 1.28 0 2.34.41 3.18 1.23.84.82 1.25 1.87 1.25 3.15 0 1.81.1 4.58.3 8.33 7.89-1.18 12.71-1.77 14.49-1.77 1.22 0 2.23.44 3.03 1.31.8.87 1.21 1.93 1.21 3.18 0 2.3-1.23 3.71-3.7 4.24-2.3.49-6.36 1.08-12.17 1.77 1.91 1.74 3.98 3.98 6.21 6.7 2.93 3.61 4.39 6.13 4.39 7.54 0 1.18-.46 2.21-1.38 3.08-.92.87-1.97 1.31-3.16 1.31-1.25 0-2.38-.59-3.4-1.77-2.01-2.69-5.28-6.55-9.81-11.58-6.77 7.66-11.35 11.48-13.75 11.48-1.19 0-2.23-.46-3.13-1.38-.9-.92-1.36-1.97-1.36-3.15 0-1.12.53-2.2 1.58-3.25 2.11-1.77 5.16-4.62 9.17-8.53-2.69-.85-6.64-2.28-11.83-4.29C833.82 1609.75 832.88 1608.47 832.88 1606.73zM918.36 1606.73c0-1.21.43-2.3 1.28-3.25.86-.95 1.87-1.43 3.05-1.43.79 0 5.24 1.59 13.36 4.78-.26-4.57-.39-7.72-.39-9.46 0-1.28.42-2.33 1.26-3.15.84-.82 1.88-1.23 3.13-1.23 1.28 0 2.34.41 3.18 1.23.84.82 1.25 1.87 1.25 3.15 0 1.81.1 4.58.3 8.33 7.89-1.18 12.71-1.77 14.49-1.77 1.22 0 2.23.44 3.03 1.31.8.87 1.21 1.93 1.21 3.18 0 2.3-1.23 3.71-3.7 4.24-2.3.49-6.36 1.08-12.17 1.77 1.91 1.74 3.98 3.98 6.21 6.7 2.93 3.61 4.39 6.13 4.39 7.54 0 1.18-.46 2.21-1.38 3.08-.92.87-1.97 1.31-3.16 1.31-1.25 0-2.38-.59-3.4-1.77-2.01-2.69-5.28-6.55-9.81-11.58-6.77 7.66-11.35 11.48-13.75 11.48-1.19 0-2.23-.46-3.13-1.38-.9-.92-1.36-1.97-1.36-3.15 0-1.12.53-2.2 1.58-3.25 2.11-1.77 5.16-4.62 9.17-8.53-2.69-.85-6.64-2.28-11.83-4.29C919.3 1609.75 918.36 1608.47 918.36 1606.73zM1003.85 1606.73c0-1.21.43-2.3 1.28-3.25.86-.95 1.87-1.43 3.05-1.43.79 0 5.24 1.59 13.36 4.78-.26-4.57-.39-7.72-.39-9.46 0-1.28.42-2.33 1.26-3.15.84-.82 1.88-1.23 3.13-1.23 1.28 0 2.34.41 3.18 1.23.84.82 1.25 1.87 1.25 3.15 0 1.81.1 4.58.3 8.33 7.89-1.18 12.71-1.77 14.49-1.77 1.22 0 2.23.44 3.03 1.31.8.87 1.21 1.93 1.21 3.18 0 2.3-1.23 3.71-3.7 4.24-2.3.49-6.36 1.08-12.17 1.77 1.91 1.74 3.98 3.98 6.21 6.7 2.93 3.61 4.39 6.13 4.39 7.54 0 1.18-.46 2.21-1.38 3.08-.92.87-1.97 1.31-3.16 1.31-1.25 0-2.38-.59-3.4-1.77-2.01-2.69-5.28-6.55-9.81-11.58-6.77 7.66-11.35 11.48-13.75 11.48-1.19 0-2.23-.46-3.13-1.38-.9-.92-1.36-1.97-1.36-3.15 0-1.12.53-2.2 1.58-3.25 2.11-1.77 5.16-4.62 9.17-8.53-2.69-.85-6.64-2.28-11.83-4.29C1004.78 1609.75 1003.85 1608.47 1003.85 1606.73zM1089.33 1606.73c0-1.21.43-2.3 1.28-3.25.86-.95 1.87-1.43 3.05-1.43.79 0 5.24 1.59 13.36 4.78-.26-4.57-.39-7.72-.39-9.46 0-1.28.42-2.33 1.26-3.15.84-.82 1.88-1.23 3.13-1.23 1.28 0 2.34.41 3.18 1.23.84.82 1.25 1.87 1.25 3.15 0 1.81.1 4.58.3 8.33 7.89-1.18 12.71-1.77 14.49-1.77 1.22 0 2.23.44 3.03 1.31.8.87 1.21 1.93 1.21 3.18 0 2.3-1.23 3.71-3.7 4.24-2.3.49-6.36 1.08-12.17 1.77 1.91 1.74 3.98 3.98 6.21 6.7 2.93 3.61 4.39 6.13 4.39 7.54 0 1.18-.46 2.21-1.38 3.08-.92.87-1.97 1.31-3.16 1.31-1.25 0-2.38-.59-3.4-1.77-2.01-2.69-5.28-6.55-9.81-11.58-6.77 7.66-11.35 11.48-13.75 11.48-1.19 0-2.23-.46-3.13-1.38-.9-.92-1.36-1.97-1.36-3.15 0-1.12.53-2.2 1.58-3.25 2.11-1.77 5.16-4.62 9.17-8.53-2.69-.85-6.64-2.28-11.83-4.29C1090.27 1609.75 1089.33 1608.47 1089.33 1606.73z" class="color030047 svgShape"/><path fill="#605efd" d="M1174.28,1944.13H740.12c-5.02,0-9.09-4.07-9.09-9.09V1791.2c0-5.02,4.07-9.09,9.09-9.09h434.16        c5.02,0,9.09,4.07,9.09,9.09v143.83C1183.37,1940.05,1179.3,1944.13,1174.28,1944.13z" class="color605efd svgShape"/><circle cx="837.42" cy="608.02" r="22.78" fill="#030047" class="color030047 svgShape"/><path fill="#030047" d="M1068.29,626.45H882.52c-1.89,0-3.42-1.53-3.42-3.42v-32.59c0-1.89,1.53-3.42,3.42-3.42h185.77         c1.89,0,3.42,1.53,3.42,3.42v32.59C1071.71,624.92,1070.18,626.45,1068.29,626.45z" class="color030047 svgShape"/><polygon fill="#ffffff" points="1532.69 1672.9 1445.41 2014.55 1646.23 2014.55 1713.43 1651.79" class="colorfff svgShape"/><path fill="#030047" d="M1646.23,2018.28h-200.82c-1.15,0-2.24-0.53-2.95-1.44c-0.71-0.91-0.95-2.1-0.67-3.22l87.28-341.65          c0.38-1.5,1.65-2.6,3.18-2.78l180.74-21.11c1.16-0.13,2.35,0.29,3.16,1.16c0.81,0.87,1.16,2.07,0.94,3.23l-67.2,362.76          C1649.58,2017,1648.03,2018.28,1646.23,2018.28z M1450.22,2010.82h192.9l65.71-354.73l-173.16,20.23L1450.22,2010.82z" class="color030047 svgShape"/><path fill="#605efd" d="M1751.79,1430.38l-39.08,374.86l-239.83-45.9l51.33-126.11l7.22-17.82l28.83-70.85          c14.44-55.66,59.85-97.88,116.41-108.29l36.79-2.89l11.45-0.9L1751.79,1430.38z" class="color605efd svgShape"/><path fill="#030047" d="M1712.7,1808.96c-0.23,0-0.47-0.02-0.7-0.07l-239.81-45.9c-1.1-0.21-2.05-0.9-2.58-1.88          c-0.53-0.98-0.6-2.15-0.18-3.19l87.38-214.79c0.77-1.91,2.97-2.83,4.86-2.05c1.91,0.78,2.83,2.96,2.05,4.87l-85.67,210.57          l231.25,44.26l13.67-168.6c0.17-2.06,1.98-3.59,4.02-3.42c2.06,0.17,3.59,1.97,3.42,4.02l-14,172.75          c-0.08,1.06-0.61,2.03-1.46,2.67C1714.3,1808.69,1713.51,1808.96,1712.7,1808.96z" class="color030047 svgShape"/><path fill="#605efd" d="M2224.88,1568.55l-63.58,446h-614.44l20.21-119.04l2.14-12.7l29.03-171.07l2.14-12.75l31.12-183.42           c7.27-42.22,40.48-75.18,82.75-82.1c0,0,86.33-7.67,162.31-10.6c3.68-0.15,7.32-0.3,10.95-0.4           c25.39-0.85,49.04-1.05,67.16-0.2c20.26,1,43.61,4.28,66.52,8.51c2.99,0.55,5.92,1.1,8.86,1.69           c53.17,10.36,101.77,24.64,101.77,24.64C2181.06,1470.16,2232.1,1518.11,2224.88,1568.55z" class="color605efd svgShape"/><polygon fill="#ffffff" points="2104.24 1815.99 1905.68 2014.55 1895.13 2014.55 2094.93 1814.75" opacity=".4" class="colorfff svgShape"/><path fill="#ffffff" d="M1887.51 1422.46l-289.27 289.27 2.14-12.75 276.18-276.13C1880.24 1422.72 1883.88 1422.56 1887.51 1422.46zM2030.06 1432.47l-462.98 463.03 2.14-12.7 451.98-452.03C2024.18 1431.33 2027.12 1431.88 2030.06 1432.47z" opacity=".4" class="colorfff svgShape"/><g opacity=".4" fill="#000000" class="color000 svgShape"><polygon fill="#ffffff" points="2004.36 1600.21 2001.73 1613.4 1600.58 2014.55 1590.02 2014.55" class="colorfff svgShape"/><polygon fill="#ffffff" points="1969.76 1797.92 1753.13 2014.55 1742.58 2014.55 1966.08 1791.05 1964.83 1797.27" class="colorfff svgShape"/></g><path fill="#030047" d="M1593.06,1745.97c-0.23,0-0.46-0.02-0.69-0.06c-2.03-0.38-3.36-2.32-2.99-4.35l36.68-197.71           c0.37-2.03,2.37-3.36,4.35-2.99c2.03,0.38,3.36,2.32,2.99,4.35l-36.68,197.71           C1596.39,1744.72,1594.82,1745.97,1593.06,1745.97z" class="color030047 svgShape"/><path fill="#ffffff" d="M2211.51,1806.28l-33.24,208.25h-366.69l-119.88-260.01c-20.96,3.34-42.31-2.57-58.65-16.09           l-16.86-14.03c0,0-27.68,8.77-44.92,14.29c-8.34,2.65-17.37,0.47-23.66-5.78l-0.38-0.38c-10.1-10.01-8.51-26.44,2.52-34.57           c-3.38,1.88-7.27,4.11-10.95,6.16c-3.04,1.71-6.33,2.52-9.58,2.52c-5.73,0-11.38-2.48-15.23-7.19           c-7.83-9.5-5.05-23.74,5.73-29.6l7.66-4.15c-7.19,3.34-15.79,2.01-21.65-3.51l-0.9-0.86c-9.41-8.77-7.83-24.13,3.12-30.89           l25.92-16l-82.48,2.31c-14.16,0.38-25.71-11-25.71-24.98c0-0.56,0-1.07,0.04-1.63c0.81-11.93,9.88-21.65,21.73-23.19           l88.6-11.59c2.95-0.43,5.99-0.3,8.9,0.39l147.89,34.35c20.58,4.83,39.4,15.4,54.16,30.55l43.93,45.05l173.9,251.8           l22.67-175.35L2211.51,1806.28z" class="colorfff svgShape"/><path fill="#030047" d="M2178.27,2018.26h-366.7c-1.46,0-2.78-0.85-3.39-2.17l-118.72-257.49           c-21.01,2.55-42.33-3.67-58.8-17.29l-15.29-12.73c-6.59,2.09-28.47,9.03-42.96,13.67c-9.67,3.08-20.18,0.51-27.43-6.68           l-0.39-0.39c-5.49-5.45-8.32-13.01-7.76-20.74c0.15-1.96,0.5-3.88,1.06-5.73c-2.75,1.1-5.7,1.68-8.66,1.68           c-7.07,0-13.67-3.12-18.12-8.56c-4.43-5.38-6.22-12.39-4.89-19.24c0.91-4.7,3.22-8.93,6.56-12.19           c-3.51-1-6.8-2.84-9.6-5.47l-0.91-0.87c-5.29-4.93-7.94-11.95-7.22-19.21c0.72-7.31,4.72-13.7,10.96-17.56l14.1-8.7           l-68.59,1.92c-7.76,0.21-15.24-2.68-20.84-8.13c-5.61-5.46-8.7-12.77-8.7-20.58c0-0.65,0-1.24,0.05-1.89           c0.93-13.67,11.44-24.87,24.98-26.63l88.59-11.59c3.38-0.49,6.85-0.34,10.24,0.45l147.88,34.35           c21.39,5.03,40.75,15.94,55.99,31.58l43.93,45.05c0.15,0.15,0.28,0.31,0.4,0.48l168.37,243.8l21.42-165.7           c0.14-1.08,0.74-2.04,1.65-2.64c0.91-0.6,2.05-0.77,3.08-0.47l224,64.13c1.82,0.52,2.96,2.31,2.66,4.18l-33.24,208.25           C2181.67,2016.93,2180.1,2018.26,2178.27,2018.26z M1813.97,2010.8h361.12l32.21-201.84l-216.64-62.02l-22.11,171.05           c-0.2,1.53-1.32,2.79-2.82,3.15c-1.5,0.37-3.07-0.24-3.95-1.51l-173.72-251.54l-43.72-44.82           c-14.24-14.61-32.34-24.82-52.34-29.52l-147.88-34.35c-2.45-0.58-5.04-0.69-7.52-0.33l-88.65,11.6           c-10.03,1.3-17.8,9.6-18.5,19.74c-0.03,0.47-0.03,0.9-0.03,1.37c0,5.78,2.29,11.19,6.44,15.23           c4.15,4.04,9.72,6.18,15.43,6.02l82.48-2.31c1.94-0.03,3.2,1.05,3.69,2.66c0.48,1.62-0.18,3.36-1.62,4.25l-25.93,16           c-4.24,2.62-6.95,6.97-7.44,11.94c-0.49,4.93,1.3,9.68,4.91,13.04l0.93,0.89c4.72,4.45,11.59,5.56,17.5,2.82           c1.81-0.84,4-0.1,4.91,1.71c0.9,1.8,0.22,4-1.56,4.96l-7.66,4.15c-4.16,2.26-7.06,6.22-7.96,10.87           c-0.9,4.65,0.31,9.42,3.33,13.08c4.73,5.78,13.49,7.51,20.1,3.78l10.96-6.17c1.74-0.96,3.9-0.41,4.96,1.24           c1.06,1.66,0.66,3.86-0.93,5.03c-4.47,3.3-7.27,8.4-7.69,14c-0.41,5.63,1.57,10.92,5.58,14.9l0.39,0.4           c5.27,5.22,12.89,7.08,19.89,4.86c17.24-5.52,44.92-14.29,44.92-14.29c1.21-0.38,2.54-0.13,3.52,0.69l16.86,14.03           c15.55,12.86,35.85,18.43,55.68,15.27c1.67-0.26,3.28,0.61,3.98,2.12L1813.97,2010.8z" class="color030047 svgShape"/><line x1="1549.38" x2="1594.36" y1="1698.23" y2="1672.9" fill="#fff"/><path fill="#030047" d="M1549.39,1701.97c-1.31,0-2.57-0.68-3.26-1.9c-1.01-1.8-0.37-4.07,1.42-5.09l44.98-25.33           c1.81-1.02,4.07-0.37,5.09,1.42c1.01,1.8,0.37,4.07-1.42,5.09l-44.98,25.33C1550.64,1701.81,1550,1701.97,1549.39,1701.97z           " class="color030047 svgShape"/><line x1="1527.38" x2="1573.77" y1="1665.69" y2="1637.89" fill="#fff"/><path fill="#030047" d="M1527.38,1669.42c-1.27,0-2.51-0.65-3.21-1.81c-1.06-1.77-0.49-4.06,1.28-5.12l46.39-27.8           c1.78-1.06,4.06-0.48,5.12,1.28c1.06,1.77,0.49,4.06-1.28,5.12l-46.39,27.8           C1528.7,1669.25,1528.04,1669.42,1527.38,1669.42z" class="color030047 svgShape"/><polyline fill="#ffffff" points="1516.41 1948.44 1359.03 1685.57 1225.41 1731.34 1310.37 2014.55 1526.73 2014.55" class="colorfff svgShape"/><path fill="#030047" d="M1526.73,2018.28h-216.37c-1.65,0-3.1-1.08-3.58-2.66l-84.96-283.21c-0.57-1.92,0.47-3.96,2.37-4.61           l133.62-45.78c1.66-0.57,3.51,0.1,4.41,1.61l157.38,262.87c1.06,1.77,0.48,4.06-1.29,5.12c-1.76,1.06-4.06,0.48-5.12-1.29           l-155.82-260.28l-127.36,43.63l83.13,277.1h213.59c2.06,0,3.73,1.67,3.73,3.73           C1530.47,2016.61,1528.79,2018.28,1526.73,2018.28z" class="color030047 svgShape"/><path fill="#010133" d="M1428.57,1716.44l-143.35,0.01c-11.06,0-20.84-7.19-24.13-17.74l-82.29-253.66           c-5.09-16.28,7.08-32.82,24.13-32.82l143.35-0.01c11.06,0,20.84,7.19,24.13,17.74l82.29,253.66           C1457.79,1699.9,1445.63,1716.44,1428.57,1716.44z" class="color010133 svgShape"/><path fill="#030047" d="M1412.16,1712.35l-138.39,0.01c-11.06,0-20.84-7.19-24.13-17.74l-74.81-239.5           c-5.09-16.28,7.08-32.82,24.13-32.82l138.39-0.01c11.06,0,20.84,7.19,24.13,17.74l74.81,239.5           C1441.37,1695.8,1429.21,1712.35,1412.16,1712.35z" class="color030047 svgShape"/><path fill="#605efd" d="M2244.64,1628.29l-4.98,43.76l-1.1,9.66l-17.03,150.06l-117.3-15.78l-9.31-1.24l-125.17-16.83          l-4.93-0.65l1.24-6.22l35.65-177.65l2.64-13.19l31.07-155.04l96.39,11.95c4.03,1.1,8.02,2.29,11.9,3.69          c2.49,0.89,4.93,1.79,7.32,2.79c32.71,13.49,59,37.54,75.58,67.16c1.29,2.19,2.44,4.48,3.53,6.77          C2243.75,1564.76,2249.32,1596.18,2244.64,1628.29z" class="color605efd svgShape"/><path fill="#ffffff" d="M2151.04 1463.59c-.2.45-.45.9-.85 1.29l-148.47 148.52 2.64-13.19 139.36-139.41 1.19-1.2c1.44-1.44 3.83-1.44 5.28 0C2151.24 1460.65 2151.54 1462.25 2151.04 1463.59zM2231.05 1536.63l-.9.9-260.39 260.39-4.93-.65 1.24-6.22 259.7-259.7c.25-.25.55-.45.85-.6 1.39-.79 3.24-.6 4.43.6C2232.5 1532.8 2232.5 1535.19 2231.05 1536.63zM2241.91 1678.38l-3.34 3.34-134.33 134.28-9.31-1.24 141.7-141.65c.85-.85 1.94-1.2 3.04-1.05.8.05 1.59.4 2.24 1.05C2243.35 1674.54 2243.35 1676.94 2241.91 1678.38z" opacity=".4" class="colorfff svgShape"/><path fill="#030047" d="M2221.54,1835.49c-0.17,0-0.33-0.01-0.5-0.03l-256.69-34.5c-1.03-0.14-1.95-0.7-2.56-1.55          c-0.6-0.85-0.82-1.91-0.6-2.93l32.4-153.24c0.42-2.02,2.4-3.31,4.42-2.88c2.02,0.43,3.31,2.41,2.88,4.43l-31.57,149.3          l248.92,33.46l13.82-121.77c0.23-2.05,2.05-3.52,4.13-3.29c2.05,0.23,3.52,2.08,3.29,4.13l-14.25,125.56          c-0.11,1-0.62,1.91-1.41,2.52C2223.17,1835.21,2222.36,1835.49,2221.54,1835.49z" class="color030047 svgShape"/><path fill="#ffffff" d="M1235.16,1763.91c0,0-23.66-69.64-29.31-93.33c-5.66-23.69-13.07-66.89,2-104.34          c15.07-37.45,64.5-36.88,101.95-23.75c37.45,13.13,21.81,29.52,21.81,29.52s40.57,2.15,42.11,17.21          c1,9.83-9.56,13.22-16.97,14.43c15.07,0.18,24.17,11.31,20.63,23.78c-4.05,14.31-43.17,17-43.17,17          c10.44-0.18,21.05,6.17,19.21,20.09c-1.81,13.89-27.23,18.15-27.23,18.15c23.96,21.63,0,46.74,0,46.74" class="colorfff svgShape"/><path fill="#030047" d="M1235.16,1767.65c-1.56,0-3.01-0.98-3.53-2.53c-0.97-2.85-23.78-70.07-29.41-93.66          c-10.07-42.14-9.34-78,2.16-106.6c15.41-38.3,64.67-40.6,106.65-25.88c15.97,5.6,25.09,12.72,27.13,21.18          c0.8,3.31,0.37,6.25-0.44,8.61c12.76,1.29,38.24,5.67,39.71,20.1c0.4,3.93-0.39,9.95-7.41,14.25          c3.08,1.61,5.71,3.81,7.73,6.5c4.01,5.37,5.15,12.07,3.23,18.86c-2.85,10.07-18.17,15.09-30.54,17.54          c0.74,0.62,1.43,1.28,2.07,2c2.73,3.06,5.75,8.5,4.62,17.02c-1.51,11.55-15.3,17.31-23.76,19.78          c4.53,5.6,6.95,11.79,7.2,18.47c0.58,15.7-11.16,28.2-11.66,28.72c-1.42,1.49-3.78,1.54-5.28,0.13          c-1.49-1.42-1.55-3.78-0.14-5.28c0.1-0.11,10.1-10.82,9.61-23.34c-0.26-6.58-3.42-12.66-9.4-18.06          c-1.06-0.96-1.48-2.44-1.08-3.82c0.4-1.37,1.55-2.4,2.96-2.64c6.31-1.07,22.95-5.84,24.15-14.95          c0.61-4.59-0.33-8.31-2.79-11.07c-2.76-3.09-7.56-4.86-12.65-4.8c-2.2,0.09-3.7-1.55-3.79-3.57          c-0.09-2.02,1.45-3.75,3.47-3.89c15.16-1.05,37.54-6.18,39.83-14.29c1.28-4.5,0.56-8.89-2.03-12.35          c-3.11-4.16-8.59-6.59-15.05-6.67c-1.94-0.02-3.53-1.52-3.68-3.45c-0.15-1.93,1.21-3.65,3.12-3.97          c9.73-1.59,14.4-5.08,13.86-10.37c-0.84-8.2-23.07-13.04-38.59-13.86c-1.45-0.08-2.73-0.99-3.27-2.35          c-0.53-1.36-0.24-2.9,0.77-3.96c0.1-0.11,3.04-3.38,1.97-7.63c-1.41-5.64-9.34-11.25-22.32-15.79          c-38.63-13.54-83.68-12.11-97.25,21.62c-10.91,27.13-11.52,61.47-1.82,102.08c5.55,23.25,28.98,92.3,29.22,92.99          c0.67,1.95-0.38,4.07-2.33,4.74C1235.97,1767.58,1235.56,1767.65,1235.16,1767.65z" class="color030047 svgShape"/><path fill="#ffffff" d="M1331.61,1572.04c0,0-23.7-1.55-40.04,4.06c-18.02,6.18-41.45,18.79-41.45,18.79" class="colorfff svgShape"/><path fill="#030047" d="M1250.13,1598.62c-1.33,0-2.62-0.71-3.29-1.96c-0.98-1.82-0.3-4.08,1.52-5.06          c0.97-0.52,23.9-12.83,42.01-19.04c16.85-5.78,40.49-4.31,41.49-4.25c2.06,0.13,3.62,1.91,3.48,3.97          c-0.13,2.06-1.93,3.63-3.97,3.48c-0.22-0.01-23.16-1.43-38.58,3.86c-17.52,6.01-40.66,18.42-40.89,18.55          C1251.33,1598.48,1250.73,1598.62,1250.13,1598.62z" class="color030047 svgShape"/><path fill="#ffffff" d="M1357.74,1603.7c0,0-33.72,1.74-47.63,4.57c-13.9,2.83-55.87,22.4-55.87,22.4" class="colorfff svgShape"/><path fill="#030047" d="M1254.25,1634.41c-1.41,0-2.76-0.8-3.39-2.16c-0.87-1.87-0.06-4.09,1.8-4.96          c1.73-0.81,42.53-19.79,56.71-22.67c14.01-2.85,46.79-4.57,48.17-4.65c2.09-0.09,3.82,1.47,3.92,3.54          c0.11,2.06-1.48,3.82-3.53,3.92c-0.34,0.02-33.61,1.76-47.08,4.5c-13.31,2.71-54.62,21.93-55.03,22.12          C1255.31,1634.3,1254.77,1634.41,1254.25,1634.41z" class="color030047 svgShape"/><path fill="#ffffff" d="M1334.2,1644.45c0,0-15.34-1.74-33.88,1.74s-38.23,16.99-38.23,16.99" class="colorfff svgShape"/><path fill="#030047" d="M1262.1,1666.92c-1.19,0-2.36-0.57-3.08-1.62c-1.17-1.7-0.73-4.02,0.96-5.19          c0.83-0.57,20.57-14,39.66-17.58c18.87-3.54,34.34-1.85,34.99-1.78c2.05,0.23,3.52,2.08,3.29,4.13          c-0.23,2.05-2.02,3.53-4.13,3.29c-0.15-0.02-15.05-1.62-32.78,1.7c-17.55,3.29-36.61,16.27-36.8,16.4          C1263.56,1666.7,1262.82,1666.92,1262.1,1666.92z" class="color030047 svgShape"/><g fill="#000000" class="color000 svgShape"><path fill="#ffffff" d="M1326.19,1682.69c0,0-19.65,0.18-29.44,2.88c-9.79,2.7-29.44,12.76-29.44,12.76" class="colorfff svgShape"/><path fill="#030047" d="M1267.31,1702.06c-1.36,0-2.67-0.74-3.33-2.03c-0.94-1.84-0.21-4.09,1.62-5.03          c0.82-0.42,20.11-10.26,30.15-13.03c10.15-2.8,29.58-3.01,30.4-3.01c2.07,0.03,3.75,1.64,3.77,3.7          c0.02,2.06-1.64,3.75-3.7,3.77c-0.19,0-19.28,0.21-28.48,2.74c-9.32,2.57-28.54,12.38-28.73,12.48          C1268.46,1701.93,1267.88,1702.06,1267.31,1702.06z" class="color030047 svgShape"/></g><g fill="#000000" class="color000 svgShape"><path fill="#030047" d="M1751.01,1172.89c0,0-56.99,112.98-37.07,167.3c22.83,62.26,283.4,39.53,352.59,7.17          c69.19-32.36-166.97-147.22-166.97-147.22L1751.01,1172.89z" class="color030047 svgShape"/><path fill="#ffffff" d="M1862.24,1289.05l-13.49,137.74c0,0-57.99,90.76,29.61,99.44c87.6,8.68,127.7-95.83,127.7-95.83            l-3.43-209.04L1862.24,1289.05z" class="colorfff svgShape"/><path fill="#030047" d="M1888.51,1530.47c-3.43,0-6.93-0.17-10.52-0.53c-24.23-2.4-40.19-11.2-47.44-26.14            c-14.24-29.35,10.59-71.78,14.57-78.25l13.41-136.87c0.13-1.3,0.92-2.43,2.09-3l140.39-67.69            c1.15-0.55,2.49-0.48,3.58,0.18c1.08,0.67,1.76,1.84,1.77,3.12l3.43,209.04c0.01,0.48-0.08,0.95-0.25,1.4            C2009.15,1432.76,1970.67,1530.47,1888.51,1530.47z M1865.75,1291.5l-13.29,135.66c-0.05,0.59-0.25,1.15-0.57,1.65            c-0.28,0.44-27.93,44.35-14.62,71.75c6.04,12.45,19.99,19.83,41.45,21.96c3.31,0.33,6.55,0.48,9.72,0.48            c73.68,0.01,110.44-84.97,113.87-93.29l-3.33-202.45L1865.75,1291.5z M1848.75,1426.79h0.05H1848.75z" class="color030047 svgShape"/><path fill="#ffffff" d="M1999.89,1243.97c4.24-8,7.91-16.37,10.95-25.07c13.63-39.03,19.63-82.44,32.31-127.84             l-232.97-86.73c-3.56,3.58-70.42,86.46-68.05,218.18c1.63,90.46,44.53,123.65,109.98,118.44             c38.66-3.08,74.61-18.28,103.33-42.24" class="colorfff svgShape"/><path fill="#030047" d="M1839.36,1345.2c-27.5,0-49.73-7.54-66.21-22.48c-22.23-20.16-33.92-53.86-34.76-100.14             c-2.47-137.67,68.43-220.16,69.14-220.88c1.04-1.04,2.58-1.38,3.95-0.86l232.97,86.73c1.82,0.68,2.82,2.64,2.3,4.5             c-5.31,19-9.46,37.75-13.48,55.87c-5.63,25.39-10.93,49.38-18.9,72.19c-3.08,8.8-6.84,17.41-11.17,25.59             c-0.96,1.82-3.22,2.52-5.05,1.55c-1.82-0.97-2.51-3.23-1.55-5.05c4.17-7.86,7.77-16.12,10.73-24.56             c7.82-22.4,13.09-46.17,18.66-71.34c3.81-17.17,7.73-34.9,12.66-52.96l-227.27-84.61c-9.97,12.74-67.7,92.4-65.51,213.68             c0.79,44.15,11.66,76.02,32.31,94.75c17.42,15.8,42.22,22.55,73.64,20.04c37.34-2.97,72.34-17.29,101.24-41.39             c1.58-1.32,3.94-1.11,5.26,0.48c1.32,1.58,1.11,3.94-0.48,5.26c-30.08,25.1-66.54,40-105.43,43.1             C1847.94,1345.02,1843.59,1345.2,1839.36,1345.2z" class="color030047 svgShape"/><path fill="#030047" d="M1961.24,1172.99l-6.84,14.88c0,0-37.11-37.74-46.8-82.07c0,0-133.95,36.11-175.67-27.51          c-54.38-82.92,127.11-165.67,230.46-118.43c113.65,51.95,135.36,184.95,170.85,271.35c35.49,86.4,82.68,111.23,61.17,143.86          c-25.13,38.12-191.59-4.4-191.59-4.4l-2.35-126.38L1961.24,1172.99z" class="color030047 svgShape"/><path fill="#ffffff" d="M1963.4,1238.22c0,0,23.69,11.54,53.03,3.26c29.34-8.28,38.35-95.5,13.58-104.16           s-68.77,35.67-68.77,35.67" class="colorfff svgShape"/><path fill="#030047" d="M1994.62,1248.23c-18.91,0-32.11-6.29-32.85-6.65c-1.85-0.9-2.62-3.13-1.72-4.98           c0.9-1.86,3.14-2.62,4.98-1.73c0.22,0.11,22.87,10.79,50.39,3.03c14.75-4.16,24.39-33.45,25.18-59.36           c0.61-20.17-4.02-34.96-11.82-37.68c-18.45-6.45-53.11,22.91-64.9,34.77c-1.45,1.46-3.82,1.47-5.28,0.02           c-1.46-1.45-1.47-3.82-0.02-5.28c1.86-1.88,45.97-45.88,72.66-36.56c11.27,3.94,17.56,20.75,16.82,44.96           c-0.89,28.91-11.68,60.97-30.61,66.32C2009.29,1247.38,2001.57,1248.23,1994.62,1248.23z" class="color030047 svgShape"/><path fill="#ffffff" d="M1982.47,1184.93c3.46-6.39,8.27-12.05,14.01-16.5c3.6-2.79,7.66-5.15,12.13-6.02           c4.47-0.86,9.42-0.06,12.91,2.87c4.94,4.15,5.89,11.34,5.77,17.79c-0.22,11.76-2.87,23.48-7.73,34.19" class="colorfff svgShape"/><path fill="#030047" d="M2019.57,1220.99c-0.52,0-1.04-0.11-1.54-0.33c-1.88-0.85-2.71-3.07-1.86-4.94           c4.63-10.2,7.19-21.52,7.4-32.72c0.14-7.37-1.31-12.23-4.44-14.86c-2.4-2.01-6.06-2.79-9.8-2.06           c-3.33,0.64-6.78,2.38-10.55,5.3c-5.31,4.12-9.81,9.42-13.02,15.33c-0.98,1.81-3.25,2.49-5.06,1.5           c-1.81-0.98-2.48-3.25-1.5-5.06c3.69-6.81,8.88-12.92,15-17.68c4.73-3.66,9.21-5.86,13.72-6.73           c5.91-1.14,11.91,0.23,16.02,3.68c4.96,4.18,7.29,10.95,7.1,20.71c-0.23,12.21-3.01,24.54-8.07,35.66           C2022.34,1220.18,2020.99,1220.99,2019.57,1220.99z" class="color030047 svgShape"/><ellipse cx="1853.56" cy="1187.18" fill="#030047" rx="14.4" ry="9.66" transform="rotate(-85.308 1853.536 1187.106)" class="color030047 svgShape"/><path fill="#ffffff" d="M1876.37,1163.82c-8.38-9.72-22.58-13.11-36.01-8.62" class="colorfff svgShape"/><path fill="#030047" d="M1876.37,1167.56c-1.05,0-2.09-0.44-2.83-1.3c-7.41-8.59-19.96-11.54-31.99-7.52           c-1.95,0.65-4.07-0.4-4.73-2.36c-0.66-1.96,0.4-4.07,2.35-4.73c14.91-4.99,30.62-1.17,40.03,9.72           c1.35,1.56,1.17,3.92-0.39,5.27C1878.11,1167.26,1877.24,1167.56,1876.37,1167.56z" class="color030047 svgShape"/><g fill="#000000" class="color000 svgShape"><ellipse cx="1778.61" cy="1184.19" fill="#030047" rx="14.4" ry="9.66" transform="rotate(-85.308 1778.59 1184.122)" class="color030047 svgShape"/><path fill="#ffffff" d="M1801.42,1160.84c-8.38-9.72-22.58-13.11-36.01-8.62" class="colorfff svgShape"/><path fill="#030047" d="M1801.43,1164.57c-1.05,0-2.09-0.44-2.83-1.3c-7.4-8.59-19.95-11.54-32-7.52           c-1.93,0.65-4.07-0.4-4.72-2.36c-0.66-1.96,0.4-4.07,2.36-4.73c14.91-4.98,30.62-1.17,40.03,9.72           c1.35,1.56,1.17,3.92-0.39,5.27C1803.16,1164.27,1802.29,1164.57,1801.43,1164.57z" class="color030047 svgShape"/></g></g><g fill="#000000" class="color000 svgShape"><path fill="#ffffff" d="M1819.5,1187.96c0.23,7.76-3.63,15.1-8.43,21.2c-4.8,6.1-10.61,11.37-15.3,17.55          c-4.69,6.18-8.31,13.69-7.7,21.43c0.57,7.16,4.99,13.9,11.33,17.27" class="colorfff svgShape"/><path fill="#030047" d="M1799.4,1269.15c-0.59,0-1.19-0.14-1.75-0.44c-7.42-3.94-12.65-11.9-13.31-20.27          c-0.6-7.61,2.32-15.91,8.45-23.98c2.57-3.38,5.44-6.48,8.22-9.48c2.53-2.74,4.93-5.33,7.12-8.12          c5.23-6.66,7.8-12.98,7.63-18.79c-0.06-2.06,1.57-3.78,3.63-3.84c1.98-0.06,3.78,1.57,3.84,3.62          c0.22,7.6-2.88,15.55-9.22,23.62c-2.38,3.03-4.99,5.85-7.52,8.58c-2.78,3-5.4,5.84-7.75,8.93          c-3.49,4.6-7.53,11.61-6.95,18.88c0.47,5.89,4.14,11.49,9.36,14.27c1.82,0.97,2.51,3.23,1.55,5.05          C1802.03,1268.43,1800.74,1269.15,1799.4,1269.15z" class="color030047 svgShape"/></g><g fill="#000000" class="color000 svgShape"><path fill="#030047" d="M1844.6,1288.45c-0.54,0-1.08-0.01-1.62-0.04c-2.06-0.11-3.64-1.87-3.53-3.93         c0.11-2.06,1.94-3.64,3.93-3.52c6.53,0.35,13.28-2.16,17.99-6.75c4.71-4.59,7.4-11.24,7.21-17.81         c-0.06-2.06,1.57-3.78,3.63-3.84c2.09-0.07,3.78,1.57,3.84,3.63c0.25,8.62-3.29,17.35-9.47,23.37         C1860.79,1285.19,1852.68,1288.45,1844.6,1288.45z" class="color030047 svgShape"/></g><g fill="#000000" class="color000 svgShape"><circle cx="943.17" cy="970.06" r="195.4" fill="#ffcc3d" class="colorffcc3d svgShape"/></g><g fill="#000000" class="color000 svgShape"><circle cx="943.17" cy="904.88" r="44.87" fill="#ffffff" class="colorfff svgShape"/></g><g fill="#000000" class="color000 svgShape"><path fill="#ffffff" d="M1011.25,1072.42c21.56,0,35.69-22.41,26.6-41.95c-16.59-35.67-52.74-60.41-94.68-60.41        c-41.94,0-78.09,24.73-94.68,60.41c-9.09,19.55,5.04,41.95,26.6,41.95H1011.25z" class="colorfff svgShape"/></g><g fill="#000000" class="color000 svgShape"><path fill="#ffffff" d="M798 1880.19c0-2.06.64-3.75 1.91-5.06 1.27-1.31 2.82-1.97 4.62-1.97 2.22 0 3.73 1.17 4.55 3.52.92 3.13 3.94 4.7 9.06 4.7 4.15 0 8.64-.96 13.47-2.89 4.83-1.92 7.24-4.55 7.24-7.89 0-2.27-.9-3.83-2.69-4.68-1.79-.85-5.66-1.33-11.6-1.43-4.61-.1-8.61-1.04-11.99-2.81-3.37-1.77-5.06-4.15-5.06-7.13 0-4.99 3.02-9.83 9.06-14.5 6.04-4.68 12.51-7.01 19.41-7.01 2.62 0 5.8.63 9.52 1.89 3.72 1.26 5.58 2.72 5.58 4.38 0 1.17-.6 2.4-1.79 3.69-1.2 1.29-2.65 1.93-4.36 1.93-1.3 0-3.07-.27-5.31-.8-2.09-.51-3.85-.76-5.27-.76-3.34 0-6.7.84-10.07 2.5-3.38 1.67-5.07 3.5-5.07 5.48 0 1.68 1.66 2.78 4.97 3.29l8.86.42c3.49.15 6.56.82 9.21 1.99 2.65 1.17 4.63 2.8 5.96 4.87 1.32 2.08 1.98 4.54 1.98 7.39 0 7.11-3.4 12.57-10.2 16.38-6.8 3.81-14.74 5.71-23.81 5.71-5.81 0-10.29-1.1-13.45-3.31C799.58 1885.88 798 1883.25 798 1880.19zM882.08 1842.81c-1.12 4.97-2.29 11.2-3.52 18.69l-2.68 17.16 5.12-.08c2.19-.02 3.99-.02 5.41.02 1.41.04 2.49.48 3.23 1.32.74.84 1.11 1.81 1.11 2.9 0 1.63-.62 3.05-1.85 4.26-1.24 1.21-2.67 1.81-4.3 1.81h-2.67c-1.05 0-2.29.03-3.74.08l-3.78.08c-4.08.08-7.54.31-10.4.69-3.29.48-5.82.73-7.6.73-1.35 0-2.46-.41-3.31-1.24-.86-.83-1.28-1.84-1.28-3.04 0-1.63.62-3.06 1.85-4.3 1.23-1.24 2.69-1.85 4.38-1.85 2.12 0 4.42-.18 6.91-.54 2.6-17.99 4.79-30.36 6.57-37.11l-8.37.27c-1.25.05-2.33-.33-3.25-1.15-.92-.82-1.38-1.89-1.38-3.21 0-1.53.56-2.9 1.7-4.11 1.13-1.21 2.7-1.88 4.7-2.01 2-.13 5.74-.19 11.22-.19 3.31 0 7.19.23 11.62.69 4.43.46 7.16.8 8.18 1.01 1.02.22 1.81.65 2.37 1.3.56.65.84 1.54.84 2.66 0 1.86-.63 3.36-1.89 4.51-1.26 1.15-2.75 1.72-4.45 1.72C891.56 1843.88 887.98 1843.53 882.08 1842.81z" class="colorfff svgShape"/><path fill="#ffffff" d="M943.6 1866.58c-2.81 7.41-7.22 13.46-13.24 18.13-6.02 4.67-12.67 7.01-19.93 7.01-11.59 0-17.39-5.26-17.39-15.78 0-10.11 4.04-20.46 12.12-31.05 8.08-10.59 15.88-15.88 23.43-15.88 2.62 0 5.99.95 10.09 2.85 4.1 1.9 6.15 3.93 6.15 6.1 0 1.38-.64 2.68-1.91 3.92-1.27 1.24-2.74 1.85-4.4 1.85-.76 0-2.35-.7-4.77-2.1-2.29-1.45-4.56-2.18-6.8-2.18-2.34 0-5.87 2.53-10.57 7.59-4.7 5.06-7.96 9.99-9.77 14.81-1.81 4.82-2.71 9.11-2.71 12.88 0 2.78.73 4.57 2.2 5.37 1.47.8 3.46 1.2 5.98 1.2 4.18 0 7.97-1.25 11.39-3.75 3.41-2.5 6.09-5.76 8.02-9.78-5.78.38-11.13 1.58-16.05 3.59-.66.36-1.49.53-2.48.53-1.4 0-2.51-.46-3.33-1.39-.81-.93-1.22-1.94-1.22-3.04 0-3.41 3.02-5.99 9.08-7.74 6.05-1.74 14.21-2.62 24.48-2.62 1.42 0 2.57.42 3.42 1.26.86.84 1.28 1.86 1.28 3.06C946.66 1863.62 945.64 1865.34 943.6 1866.58zM966 1850.38c-1.66 8.69-3.1 17.57-4.32 26.64-.89 6.6-2.01 10.76-3.35 12.5-1.34 1.73-2.83 2.6-4.49 2.6-1.73 0-3.02-.46-3.88-1.39-.86-.93-1.28-1.99-1.28-3.19 0-.79.37-2.6 1.11-5.43 1.89-8.81 3.35-17.32 4.4-25.53l1.07-7.18c.31-1.81.52-4.11.65-6.92.2-2.68.41-4.84.63-6.5.22-1.66 1.07-3.1 2.56-4.32 1.49-1.22 3.09-1.83 4.79-1.83 1.89 0 3.73 1.62 5.54 4.85 8.89 16.46 18.18 29.91 27.86 40.36l.95-5.77c.08-.46.68-4.47 1.8-12.04 1.12-7.57 1.72-12.2 1.79-13.91l.31-5.96c.23-4.71 2.4-7.07 6.5-7.07 2.83 0 4.24 2.96 4.24 8.87 0 3.85-.69 9.29-2.07 16.32l-3.97 24.19c-.31 1.83-.97 4.12-1.99 6.86-1.02 2.74-3.04 4.11-6.07 4.11-1.43 0-2.87-.61-4.32-1.82-1.45-1.21-4.79-5.04-10.03-11.5C979.2 1870.84 973.05 1861.87 966 1850.38zM1063.94 1842.89l-1.11 6.65c-.33 2.01-.69 3.86-1.07 5.54l-.57 3.21c-.18.94-.33 1.71-.46 2.29-.51 3.11-.76 5.77-.76 7.99 0 8.54 3.73 12.8 11.2 12.8 4.63 0 8.84-2.99 12.61-8.96 3.77-5.97 6.94-17.13 9.52-33.46.33-1.83 1.16-3.41 2.5-4.74 1.34-1.32 2.91-1.99 4.72-1.99 2.78 0 4.17 1.32 4.17 3.97 0 1.76-1.32 8.36-3.96 19.81-2.64 11.45-6.68 20.28-12.13 26.48-5.45 6.2-11.81 9.31-19.07 9.31-13.58 0-20.37-7.15-20.37-21.44 0-3.82.69-9.35 2.06-16.59l1.68-8.79c.31-1.45.57-2.94.8-4.47.35-2.39 1.16-4.56 2.41-6.5 1.25-1.94 2.69-2.9 4.32-2.9 1.27 0 2.38.4 3.31 1.2.93.8 1.4 1.82 1.4 3.04C1065.13 1836.28 1064.73 1838.79 1063.94 1842.89zM1116.61 1867.46c-.71 3.49-1.71 9.36-2.98 17.62-.26 1.43-.93 2.6-2.03 3.53-1.09.93-2.36 1.39-3.78 1.39-1.45 0-2.59-.49-3.42-1.47-.83-.98-1.11-2.13-.86-3.46l1.64-10.66c.61-3.92 1.81-9.8 3.59-17.62 1.3-5.91 2.47-11.78 3.52-17.62 1.09-6.62 3.48-9.77 7.14-9.44 1.5-.48 4.58-.73 9.21-.73 4.86 0 9.19 1.54 12.99 4.61 3.8 3.07 5.69 6.73 5.69 10.99 0 6.29-2.69 11.73-8.06 16.3-5.38 4.57-11.86 6.86-19.45 6.86C1118.98 1867.77 1117.91 1867.67 1116.61 1867.46zM1126.24 1838.88h-2.14c-.61 0-1.16.03-1.64.08l-.84 5.43c-.25 1.71-1.22 6.11-2.9 13.22 1.07.2 1.96.31 2.67.31 4.56 0 8.33-1.2 11.31-3.61 2.98-2.41 4.47-5.13 4.47-8.16 0-1.89-1.12-3.57-3.36-5.04C1131.56 1839.62 1129.04 1838.88 1126.24 1838.88z" class="colorfff svgShape"/></g><g fill="#000000" class="color000 svgShape"><path fill="#030047" d="M1557.91,859c-145.5-115.65-58.63-302.06-58.63-302.06c133.67,7.89,199.07-48.84,199.07-48.84       s8.27,86.21,110.41,172.69C1808.75,680.79,1743.09,875.69,1557.91,859z" class="color030047 svgShape"/></g><g fill="#000000" class="color000 svgShape"><polygon fill="#ffffff" points="1570.64 740.25 1552.68 680.36 1587.15 670.02 1594.77 695.46 1697.31 664.71 1707.64 699.18" class="colorfff svgShape"/></g><g fill="#000000" class="color000 svgShape"><path fill="#ffcc3d" d="M1640.2,1189.21l-10.18,45.76c-4.86,21.4-26.03,34.87-47.36,30.13l-45.76-10.18       c-21.34-4.75-34.8-25.92-30.06-47.25l10.11-45.88c4.74-21.33,25.92-34.8,47.36-30.13l45.84,10.29       C1631.47,1146.7,1644.94,1167.88,1640.2,1189.21z" class="colorffcc3d svgShape"/></g><g fill="#000000" class="color000 svgShape"><path fill="#ffcc3d" d="M2214.64,1001.29l-5.92,26.62c-2.82,12.45-15.14,20.28-27.55,17.52l-26.62-5.92       c-12.41-2.76-20.24-15.08-17.48-27.48l5.88-26.68c2.76-12.41,15.08-20.24,27.55-17.52l26.66,5.98       C2209.56,976.56,2217.39,988.88,2214.64,1001.29z" class="colorffcc3d svgShape"/></g><g fill="#000000" class="color000 svgShape"><path fill="#ffcc3d" d="M1978.14,511.63l-5.62,25.28c-2.68,11.82-14.38,19.26-26.16,16.64l-25.28-5.62       c-11.79-2.62-19.23-14.32-16.61-26.1l5.58-25.34c2.62-11.78,14.32-19.22,26.16-16.64l25.32,5.68       C1973.32,488.14,1980.76,499.84,1978.14,511.63z" class="colorffcc3d svgShape"/></g><g opacity=".4" fill="#000000" class="color000 svgShape"><polygon fill="#ffffff" points="1724.9 1432.47 1524.2 1633.22 1531.42 1615.4 1713.45 1433.37" class="colorfff svgShape"/></g><g fill="#000000" class="color000 svgShape"><path fill="#030047" d="M2246.27,2020.67H404.09c-2.06,0-3.73-1.67-3.73-3.73c0-2.06,1.67-3.73,3.73-3.73h1842.18    c2.06,0,3.73,1.67,3.73,3.73C2250,2019,2248.33,2020.67,2246.27,2020.67z" class="color030047 svgShape"/></g></svg>